<svg version="1" xmlns="http://www.w3.org/2000/svg" width="933.333" height="933.333" viewBox="0 0 700.000000 700.000000"><path d="M31 122.7c-1.5.3-7.9 6-16.1 14.2C4 147.8 1 151.3.6 154.1c-.8 4-.2 7.4 1.7 10.3.8 1.1 39.1 39.7 85 85.6l83.6 83.6L86.5 418C25.9 478.6 1.7 503.4.9 505.8c-2.3 6.9-.7 9.7 12.9 23.5 7 7.1 13.9 13.5 15.4 14.3 3.1 1.6 7.6 1.8 11.2.5 3.3-1.3 205.6-203.7 205.7-205.9 0-.9.2-2.5.4-3.5 1.1-5.6-.4-7.2-102.5-109.2C88.5 169.9 41.8 124 40.3 123.3c-2.9-1.2-5-1.4-9.3-.6zM274.7 524.5c-3.5 1.4-6.7 4.5-7.9 7.5-.5 1.4-1 9.8-.9 18.8 0 18.7 1 22.4 7.1 25.4 3.3 1.7 15.8 1.8 210 1.8 198.3 0 206.6-.1 209.9-1.8 6.3-3.4 7.1-6.4 7.1-25.8 0-16.2-.1-17.3-2.3-20.5-4.6-6.8 12.7-6.3-214.4-6.3-137-.1-207 .2-208.6.9z"/></svg>